<mxfile host="app.diagrams.net" agent="Mozilla/5.0 (Windows NT 10.0; Win64; x64) AppleWebKit/537.36 (KHTML, like Gecko) Chrome/133.0.0.0 Safari/537.36" version="28.2.0">
  <diagram name="Page-1" id="IxUm6vDibdoWVmS3BNR8">
    <mxGraphModel dx="1303" dy="779" grid="1" gridSize="10" guides="1" tooltips="1" connect="1" arrows="1" fold="1" page="1" pageScale="1" pageWidth="850" pageHeight="1100" math="0" shadow="0">
      <root>
        <mxCell id="0" />
        <mxCell id="1" parent="0" />
        <mxCell id="LafRuKVnazZlnOK5CY7K-60" value="" style="rounded=0;whiteSpace=wrap;html=1;fillColor=none;dashed=1;dashPattern=8 8;" vertex="1" parent="1">
          <mxGeometry x="1160" y="160" width="420" height="160" as="geometry" />
        </mxCell>
        <mxCell id="LafRuKVnazZlnOK5CY7K-41" value="" style="rounded=0;whiteSpace=wrap;html=1;fillColor=none;dashed=1;dashPattern=8 8;" vertex="1" parent="1">
          <mxGeometry x="570" y="440" width="520" height="160" as="geometry" />
        </mxCell>
        <mxCell id="LafRuKVnazZlnOK5CY7K-40" value="" style="rounded=0;whiteSpace=wrap;html=1;fillColor=none;dashed=1;dashPattern=8 8;" vertex="1" parent="1">
          <mxGeometry x="570" y="160" width="520" height="160" as="geometry" />
        </mxCell>
        <mxCell id="LafRuKVnazZlnOK5CY7K-2" value="&lt;b&gt;LOS&lt;/b&gt;&lt;div&gt;&lt;i&gt;&lt;font style=&quot;font-size: 11px;&quot;&gt;Loan Origination System&lt;/font&gt;&lt;/i&gt;&lt;/div&gt;" style="shape=datastore;whiteSpace=wrap;html=1;" vertex="1" parent="1">
          <mxGeometry x="110" y="70" width="120" height="120" as="geometry" />
        </mxCell>
        <mxCell id="LafRuKVnazZlnOK5CY7K-3" value="&lt;b&gt;CRA&lt;/b&gt;&lt;div&gt;&lt;i&gt;&lt;font style=&quot;font-size: 11px;&quot;&gt;Credit Reporting Agency&lt;/font&gt;&lt;/i&gt;&lt;/div&gt;" style="shape=datastore;whiteSpace=wrap;html=1;" vertex="1" parent="1">
          <mxGeometry x="110" y="200" width="120" height="120" as="geometry" />
        </mxCell>
        <mxCell id="LafRuKVnazZlnOK5CY7K-4" value="&lt;b&gt;AMC/AVC&lt;/b&gt;&lt;div&gt;&lt;font style=&quot;font-size: 10px;&quot;&gt;&lt;i style=&quot;&quot;&gt;Appraisal Management Company/&lt;/i&gt;&lt;span style=&quot;background-color: transparent;&quot;&gt;&lt;i style=&quot;&quot;&gt;Automated Valuation Model&lt;/i&gt;&lt;/span&gt;&lt;/font&gt;&lt;/div&gt;" style="shape=datastore;whiteSpace=wrap;html=1;" vertex="1" parent="1">
          <mxGeometry x="110" y="330" width="120" height="120" as="geometry" />
        </mxCell>
        <mxCell id="LafRuKVnazZlnOK5CY7K-11" value="&lt;b&gt;Applications&lt;/b&gt;" style="rounded=1;arcSize=10;whiteSpace=wrap;html=1;align=center;" vertex="1" parent="1">
          <mxGeometry x="290" y="70" width="100" height="40" as="geometry" />
        </mxCell>
        <mxCell id="LafRuKVnazZlnOK5CY7K-12" value="&lt;b&gt;Adverse Action Notices&lt;/b&gt;" style="rounded=1;arcSize=10;whiteSpace=wrap;html=1;align=center;" vertex="1" parent="1">
          <mxGeometry x="290" y="160" width="100" height="40" as="geometry" />
        </mxCell>
        <mxCell id="LafRuKVnazZlnOK5CY7K-13" value="&lt;b&gt;Property Appraisals&lt;/b&gt;" style="rounded=1;arcSize=10;whiteSpace=wrap;html=1;align=center;" vertex="1" parent="1">
          <mxGeometry x="290" y="380" width="100" height="40" as="geometry" />
        </mxCell>
        <mxCell id="LafRuKVnazZlnOK5CY7K-14" value="&lt;b&gt;Credit Bureau Summary&lt;/b&gt;" style="rounded=1;arcSize=10;whiteSpace=wrap;html=1;align=center;" vertex="1" parent="1">
          <mxGeometry x="290" y="250" width="100" height="40" as="geometry" />
        </mxCell>
        <mxCell id="LafRuKVnazZlnOK5CY7K-15" value="" style="strokeWidth=2;html=1;shape=mxgraph.flowchart.annotation_2;align=left;labelPosition=right;pointerEvents=1;" vertex="1" parent="1">
          <mxGeometry x="230" y="90" width="60" height="90" as="geometry" />
        </mxCell>
        <mxCell id="LafRuKVnazZlnOK5CY7K-16" value="" style="endArrow=none;html=1;rounded=0;strokeWidth=2;exitX=1.002;exitY=0.581;exitDx=0;exitDy=0;exitPerimeter=0;" edge="1" parent="1" source="LafRuKVnazZlnOK5CY7K-3">
          <mxGeometry width="50" height="50" relative="1" as="geometry">
            <mxPoint x="240" y="270" as="sourcePoint" />
            <mxPoint x="290" y="269.55" as="targetPoint" />
          </mxGeometry>
        </mxCell>
        <mxCell id="LafRuKVnazZlnOK5CY7K-17" value="" style="endArrow=none;html=1;rounded=0;strokeWidth=2;exitX=1.002;exitY=0.581;exitDx=0;exitDy=0;exitPerimeter=0;" edge="1" parent="1">
          <mxGeometry width="50" height="50" relative="1" as="geometry">
            <mxPoint x="230" y="399.95" as="sourcePoint" />
            <mxPoint x="290" y="399.5" as="targetPoint" />
          </mxGeometry>
        </mxCell>
        <mxCell id="LafRuKVnazZlnOK5CY7K-23" value="" style="edgeStyle=elbowEdgeStyle;elbow=horizontal;endArrow=classic;html=1;curved=0;rounded=0;endSize=8;startSize=8;" edge="1" parent="1">
          <mxGeometry width="50" height="50" relative="1" as="geometry">
            <mxPoint x="390" y="400" as="sourcePoint" />
            <mxPoint x="560" y="240" as="targetPoint" />
          </mxGeometry>
        </mxCell>
        <mxCell id="LafRuKVnazZlnOK5CY7K-24" value="" style="edgeStyle=elbowEdgeStyle;elbow=horizontal;endArrow=classic;html=1;curved=0;rounded=0;endSize=8;startSize=8;" edge="1" parent="1">
          <mxGeometry width="50" height="50" relative="1" as="geometry">
            <mxPoint x="390" y="270" as="sourcePoint" />
            <mxPoint x="560" y="240" as="targetPoint" />
          </mxGeometry>
        </mxCell>
        <mxCell id="LafRuKVnazZlnOK5CY7K-25" value="" style="edgeStyle=elbowEdgeStyle;elbow=horizontal;endArrow=classic;html=1;curved=0;rounded=0;endSize=8;startSize=8;" edge="1" parent="1">
          <mxGeometry width="50" height="50" relative="1" as="geometry">
            <mxPoint x="390" y="180" as="sourcePoint" />
            <mxPoint x="560" y="240" as="targetPoint" />
          </mxGeometry>
        </mxCell>
        <mxCell id="LafRuKVnazZlnOK5CY7K-26" value="" style="edgeStyle=elbowEdgeStyle;elbow=horizontal;endArrow=classic;html=1;curved=0;rounded=0;endSize=8;startSize=8;" edge="1" parent="1">
          <mxGeometry width="50" height="50" relative="1" as="geometry">
            <mxPoint x="390" y="90" as="sourcePoint" />
            <mxPoint x="560" y="240" as="targetPoint" />
          </mxGeometry>
        </mxCell>
        <mxCell id="LafRuKVnazZlnOK5CY7K-27" value="&lt;font style=&quot;font-size: 16px;&quot;&gt;&lt;b style=&quot;&quot;&gt;Bronze Layer&lt;/b&gt;&lt;/font&gt;" style="whiteSpace=wrap;html=1;aspect=fixed;verticalAlign=middle;spacing=2;spacingBottom=0;fillColor=light-dark(#CD7F32,#CD7F32);fillStyle=solid;gradientColor=none;" vertex="1" parent="1">
          <mxGeometry x="590" y="180" width="120" height="120" as="geometry" />
        </mxCell>
        <mxCell id="LafRuKVnazZlnOK5CY7K-28" value="&lt;font style=&quot;font-size: 16px;&quot;&gt;&lt;b style=&quot;&quot;&gt;Silver Layer&lt;/b&gt;&lt;/font&gt;" style="whiteSpace=wrap;html=1;aspect=fixed;verticalAlign=middle;spacing=2;spacingBottom=0;fillColor=light-dark(#C0C0C0,#CD7F32);fillStyle=solid;gradientColor=none;" vertex="1" parent="1">
          <mxGeometry x="770" y="180" width="120" height="120" as="geometry" />
        </mxCell>
        <mxCell id="LafRuKVnazZlnOK5CY7K-29" value="&lt;font style=&quot;font-size: 16px;&quot;&gt;&lt;b style=&quot;&quot;&gt;Gold Layer&lt;/b&gt;&lt;/font&gt;" style="whiteSpace=wrap;html=1;aspect=fixed;verticalAlign=middle;spacing=2;spacingBottom=0;fillColor=light-dark(#FFD700,#CD7F32);fillStyle=solid;gradientColor=none;" vertex="1" parent="1">
          <mxGeometry x="950" y="180" width="120" height="120" as="geometry" />
        </mxCell>
        <mxCell id="LafRuKVnazZlnOK5CY7K-32" value="" style="shape=flexArrow;endArrow=classic;html=1;rounded=0;" edge="1" parent="1">
          <mxGeometry width="50" height="50" relative="1" as="geometry">
            <mxPoint x="720" y="239.83" as="sourcePoint" />
            <mxPoint x="760" y="239.83" as="targetPoint" />
          </mxGeometry>
        </mxCell>
        <mxCell id="LafRuKVnazZlnOK5CY7K-33" value="" style="shape=flexArrow;endArrow=classic;html=1;rounded=0;" edge="1" parent="1">
          <mxGeometry width="50" height="50" relative="1" as="geometry">
            <mxPoint x="900" y="239.83" as="sourcePoint" />
            <mxPoint x="940" y="239.83" as="targetPoint" />
          </mxGeometry>
        </mxCell>
        <mxCell id="LafRuKVnazZlnOK5CY7K-34" value="&lt;font style=&quot;font-size: 18px;&quot;&gt;&lt;b&gt;Medallion Architecture&lt;/b&gt;&lt;/font&gt;" style="text;html=1;align=center;verticalAlign=middle;whiteSpace=wrap;rounded=0;" vertex="1" parent="1">
          <mxGeometry x="725" y="100" width="210" height="30" as="geometry" />
        </mxCell>
        <mxCell id="LafRuKVnazZlnOK5CY7K-35" value="&lt;font style=&quot;font-size: 18px;&quot;&gt;&lt;b&gt;Source Systems&lt;/b&gt;&lt;/font&gt;" style="text;html=1;align=center;verticalAlign=middle;whiteSpace=wrap;rounded=0;" vertex="1" parent="1">
          <mxGeometry x="190" y="10" width="210" height="30" as="geometry" />
        </mxCell>
        <mxCell id="LafRuKVnazZlnOK5CY7K-36" value="&lt;font style=&quot;font-size: 16px;&quot;&gt;&lt;b&gt;DEV&lt;/b&gt;&lt;/font&gt;&lt;div&gt;&lt;font size=&quot;1&quot; style=&quot;&quot;&gt;&lt;i style=&quot;&quot;&gt;Sampled Data, Short Retention&lt;/i&gt;&lt;/font&gt;&lt;/div&gt;" style="whiteSpace=wrap;html=1;aspect=fixed;" vertex="1" parent="1">
          <mxGeometry x="590" y="460" width="120" height="120" as="geometry" />
        </mxCell>
        <mxCell id="LafRuKVnazZlnOK5CY7K-37" value="&lt;font style=&quot;font-size: 18px;&quot;&gt;&lt;b&gt;Workspaces&lt;/b&gt;&lt;/font&gt;" style="text;html=1;align=center;verticalAlign=middle;whiteSpace=wrap;rounded=0;" vertex="1" parent="1">
          <mxGeometry x="725" y="620" width="210" height="30" as="geometry" />
        </mxCell>
        <mxCell id="LafRuKVnazZlnOK5CY7K-42" value="&lt;b&gt;&lt;font style=&quot;font-size: 16px;&quot;&gt;QA&lt;/font&gt;&lt;/b&gt;&lt;div&gt;&lt;font style=&quot;font-size: 10px;&quot;&gt;&lt;i style=&quot;&quot;&gt;Subset of Data, Short Retention&lt;/i&gt;&lt;/font&gt;&lt;/div&gt;" style="whiteSpace=wrap;html=1;aspect=fixed;" vertex="1" parent="1">
          <mxGeometry x="770" y="460" width="120" height="120" as="geometry" />
        </mxCell>
        <mxCell id="LafRuKVnazZlnOK5CY7K-43" value="&lt;font style=&quot;font-size: 16px;&quot;&gt;&lt;b style=&quot;&quot;&gt;Prod&lt;/b&gt;&lt;/font&gt;&lt;div&gt;&lt;font style=&quot;font-size: 10px;&quot;&gt;&lt;i style=&quot;&quot;&gt;Full Data, Long Retention&amp;nbsp;&amp;nbsp;&lt;/i&gt;&lt;/font&gt;&lt;/div&gt;" style="whiteSpace=wrap;html=1;aspect=fixed;" vertex="1" parent="1">
          <mxGeometry x="950" y="460" width="120" height="120" as="geometry" />
        </mxCell>
        <mxCell id="LafRuKVnazZlnOK5CY7K-50" value="" style="strokeWidth=2;html=1;shape=mxgraph.flowchart.annotation_2;align=left;labelPosition=right;pointerEvents=1;rotation=-90;" vertex="1" parent="1">
          <mxGeometry x="791.25" y="156.25" width="77.5" height="365" as="geometry" />
        </mxCell>
        <mxCell id="LafRuKVnazZlnOK5CY7K-51" value="" style="strokeWidth=2;html=1;shape=mxgraph.flowchart.annotation_2;align=left;labelPosition=right;pointerEvents=1;rotation=90;" vertex="1" parent="1">
          <mxGeometry x="787.5" y="235" width="85" height="365" as="geometry" />
        </mxCell>
        <mxCell id="LafRuKVnazZlnOK5CY7K-52" value="" style="endArrow=none;html=1;rounded=0;exitX=0.485;exitY=0.5;exitDx=0;exitDy=0;exitPerimeter=0;strokeWidth=2;" edge="1" parent="1" source="LafRuKVnazZlnOK5CY7K-50">
          <mxGeometry width="50" height="50" relative="1" as="geometry">
            <mxPoint x="829.815" y="343.32249999999993" as="sourcePoint" />
            <mxPoint x="830.18" y="300" as="targetPoint" />
          </mxGeometry>
        </mxCell>
        <mxCell id="LafRuKVnazZlnOK5CY7K-53" value="" style="endArrow=none;html=1;rounded=0;exitX=1;exitY=0.5;exitDx=0;exitDy=0;exitPerimeter=0;strokeWidth=2;" edge="1" parent="1" source="LafRuKVnazZlnOK5CY7K-51">
          <mxGeometry width="50" height="50" relative="1" as="geometry">
            <mxPoint x="829.76" y="450" as="sourcePoint" />
            <mxPoint x="829.9399999999999" y="410" as="targetPoint" />
          </mxGeometry>
        </mxCell>
        <mxCell id="LafRuKVnazZlnOK5CY7K-55" value="" style="endArrow=classic;html=1;rounded=0;" edge="1" parent="1">
          <mxGeometry width="50" height="50" relative="1" as="geometry">
            <mxPoint x="1100" y="240" as="sourcePoint" />
            <mxPoint x="1150" y="240" as="targetPoint" />
          </mxGeometry>
        </mxCell>
        <mxCell id="LafRuKVnazZlnOK5CY7K-56" value="&lt;font style=&quot;font-size: 18px;&quot;&gt;&lt;b&gt;Power BI Workspace&lt;/b&gt;&lt;/font&gt;" style="text;html=1;align=center;verticalAlign=middle;whiteSpace=wrap;rounded=0;" vertex="1" parent="1">
          <mxGeometry x="1270" y="100" width="210" height="30" as="geometry" />
        </mxCell>
        <mxCell id="LafRuKVnazZlnOK5CY7K-59" value="&lt;b&gt;&lt;font style=&quot;font-size: 16px;&quot;&gt;Semantic&amp;nbsp;&lt;/font&gt;&lt;/b&gt;&lt;div&gt;&lt;b&gt;&lt;font style=&quot;font-size: 16px;&quot;&gt;Layer&lt;/font&gt;&lt;/b&gt;&lt;/div&gt;" style="ellipse;shape=cloud;whiteSpace=wrap;html=1;" vertex="1" parent="1">
          <mxGeometry x="1170" y="186.25" width="150" height="113.75" as="geometry" />
        </mxCell>
        <mxCell id="LafRuKVnazZlnOK5CY7K-61" value="" style="shape=flexArrow;endArrow=classic;html=1;rounded=0;" edge="1" parent="1">
          <mxGeometry width="50" height="50" relative="1" as="geometry">
            <mxPoint x="1355" y="239.38" as="sourcePoint" />
            <mxPoint x="1395" y="239.38" as="targetPoint" />
          </mxGeometry>
        </mxCell>
        <mxCell id="LafRuKVnazZlnOK5CY7K-63" value="&lt;b&gt;&lt;font style=&quot;font-size: 16px;&quot;&gt;Reports&lt;/font&gt;&lt;/b&gt;" style="shape=cube;whiteSpace=wrap;html=1;boundedLbl=1;backgroundOutline=1;darkOpacity=0.05;darkOpacity2=0.1;" vertex="1" parent="1">
          <mxGeometry x="1440" y="200" width="120" height="80" as="geometry" />
        </mxCell>
      </root>
    </mxGraphModel>
  </diagram>
</mxfile>
